<svg width="228" height="34" viewBox="0 0 228 34" fill="none" xmlns="http://www.w3.org/2000/svg">
<path d="M40.9905 17.426C40.9905 16.5874 40.9224 15.9754 40.7752 15.3408H31.1992V19.1258H36.8201C36.7068 20.0664 36.0948 21.483 34.7349 22.4349L34.7159 22.5616L37.7436 24.9071L37.9534 24.9281C39.8798 23.1489 40.9905 20.5311 40.9905 17.426Z" fill="#4285F4"/>
<path d="M31.1992 27.3983C33.953 27.3983 36.2648 26.4917 37.9534 24.9279L34.7349 22.4347C33.8737 23.0353 32.7177 23.4546 31.1992 23.4546C28.5021 23.4546 26.213 21.6754 25.397 19.2163L25.2773 19.2265L22.1291 21.6629L22.0879 21.7774C23.7651 25.1091 27.2102 27.3983 31.1992 27.3983Z" fill="#34A853"/>
<path d="M25.397 19.2164C25.1816 18.5818 25.057 17.9018 25.057 17.1993C25.057 16.4966 25.1816 15.8167 25.3856 15.1821L25.3799 15.0469L22.1922 12.5713L22.0879 12.6209C21.3966 14.0035 21 15.5561 21 17.1993C21 18.8425 21.3966 20.395 22.0879 21.7775L25.397 19.2164Z" fill="#FBBC05"/>
<path d="M31.1992 10.9437C33.1144 10.9437 34.4062 11.7709 35.1429 12.4623L38.0213 9.6518C36.2535 8.00859 33.953 7 31.1992 7C27.2102 7 23.7651 9.28914 22.0879 12.6209L25.3856 15.182C26.213 12.7229 28.5021 10.9437 31.1992 10.9437Z" fill="#EB4335"/>
<path d="M49.952 22V12.2H52.08L55.202 18.416L58.282 12.2H60.41V22H58.618V15.238L55.888 20.6H54.474L51.744 15.238V22H49.952ZM64.8634 22.168C64.266 22.168 63.776 22.0747 63.3934 21.888C63.0107 21.692 62.726 21.4353 62.5394 21.118C62.3527 20.8007 62.2594 20.4507 62.2594 20.068C62.2594 19.424 62.5114 18.9013 63.0154 18.5C63.5194 18.0987 64.2754 17.898 65.2834 17.898H67.0474V17.73C67.0474 17.254 66.912 16.904 66.6414 16.68C66.3707 16.456 66.0347 16.344 65.6334 16.344C65.2694 16.344 64.952 16.4327 64.6814 16.61C64.4107 16.778 64.2427 17.03 64.1774 17.366H62.4274C62.474 16.862 62.642 16.4233 62.9314 16.05C63.23 15.6767 63.6127 15.392 64.0794 15.196C64.546 14.9907 65.0687 14.888 65.6474 14.888C66.6367 14.888 67.416 15.1353 67.9854 15.63C68.5547 16.1247 68.8394 16.8247 68.8394 17.73V22H67.3134L67.1454 20.88C66.94 21.2533 66.6507 21.5613 66.2774 21.804C65.9134 22.0467 65.442 22.168 64.8634 22.168ZM65.2694 20.768C65.7827 20.768 66.1794 20.6 66.4594 20.264C66.7487 19.928 66.9307 19.5127 67.0054 19.018H65.4794C65.0034 19.018 64.6627 19.1067 64.4574 19.284C64.252 19.452 64.1494 19.662 64.1494 19.914C64.1494 20.1847 64.252 20.3947 64.4574 20.544C64.6627 20.6933 64.9334 20.768 65.2694 20.768ZM73.6195 22.168C73.0035 22.168 72.4621 22.07 71.9955 21.874C71.5288 21.6687 71.1555 21.3887 70.8755 21.034C70.5955 20.6793 70.4275 20.2687 70.3715 19.802H72.1775C72.2335 20.0727 72.3828 20.306 72.6255 20.502C72.8775 20.6887 73.1995 20.782 73.5915 20.782C73.9835 20.782 74.2681 20.7027 74.4455 20.544C74.6321 20.3853 74.7255 20.2033 74.7255 19.998C74.7255 19.6993 74.5948 19.4987 74.3335 19.396C74.0721 19.284 73.7081 19.1767 73.2415 19.074C72.9428 19.0087 72.6395 18.9293 72.3315 18.836C72.0235 18.7427 71.7388 18.626 71.4775 18.486C71.2255 18.3367 71.0201 18.15 70.8615 17.926C70.7028 17.6927 70.6235 17.408 70.6235 17.072C70.6235 16.456 70.8661 15.938 71.3515 15.518C71.8461 15.098 72.5368 14.888 73.4235 14.888C74.2448 14.888 74.8981 15.0793 75.3835 15.462C75.8781 15.8447 76.1721 16.372 76.2655 17.044H74.5715C74.4688 16.5307 74.0815 16.274 73.4095 16.274C73.0735 16.274 72.8121 16.3393 72.6255 16.47C72.4481 16.6007 72.3595 16.764 72.3595 16.96C72.3595 17.1653 72.4948 17.3287 72.7655 17.45C73.0361 17.5713 73.3955 17.6833 73.8435 17.786C74.3288 17.898 74.7721 18.024 75.1735 18.164C75.5841 18.2947 75.9108 18.4953 76.1535 18.766C76.3961 19.0273 76.5175 19.4053 76.5175 19.9C76.5268 20.3293 76.4148 20.7167 76.1815 21.062C75.9481 21.4073 75.6121 21.678 75.1735 21.874C74.7348 22.07 74.2168 22.168 73.6195 22.168ZM80.9089 22.168C80.0409 22.168 79.3689 21.8973 78.8929 21.356C78.4263 20.8147 78.1929 20.0213 78.1929 18.976V15.056H79.9709V18.808C79.9709 19.4053 80.0923 19.8627 80.3349 20.18C80.5776 20.4973 80.9603 20.656 81.4829 20.656C81.9776 20.656 82.3836 20.4787 82.7009 20.124C83.0276 19.7693 83.1909 19.2747 83.1909 18.64V15.056H84.9829V22H83.4009L83.2609 20.824C83.0463 21.2347 82.7336 21.5613 82.3229 21.804C81.9216 22.0467 81.4503 22.168 80.9089 22.168ZM87.0225 22V11.92H88.8145V17.87L91.2785 15.056H93.4065L90.5645 18.22L93.8685 22H91.6285L88.8145 18.514V22H87.0225ZM101.907 22.168C101.254 22.168 100.671 22.0093 100.157 21.692C99.6441 21.3747 99.2381 20.9407 98.9395 20.39C98.6408 19.8393 98.4915 19.214 98.4915 18.514C98.4915 17.814 98.6408 17.1933 98.9395 16.652C99.2381 16.1013 99.6441 15.672 100.157 15.364C100.671 15.0467 101.254 14.888 101.907 14.888C102.43 14.888 102.887 14.986 103.279 15.182C103.671 15.378 103.989 15.6533 104.231 16.008V11.92H106.023V22H104.427L104.231 21.006C104.007 21.314 103.709 21.5847 103.335 21.818C102.971 22.0513 102.495 22.168 101.907 22.168ZM102.285 20.6C102.864 20.6 103.335 20.4087 103.699 20.026C104.073 19.634 104.259 19.1347 104.259 18.528C104.259 17.9213 104.073 17.4267 103.699 17.044C103.335 16.652 102.864 16.456 102.285 16.456C101.716 16.456 101.245 16.6473 100.871 17.03C100.498 17.4127 100.311 17.9073 100.311 18.514C100.311 19.1207 100.498 19.62 100.871 20.012C101.245 20.404 101.716 20.6 102.285 20.6ZM111.422 22.168C110.722 22.168 110.102 22.0187 109.56 21.72C109.019 21.4213 108.594 21.0013 108.286 20.46C107.978 19.9187 107.824 19.2933 107.824 18.584C107.824 17.8653 107.974 17.226 108.272 16.666C108.58 16.106 109 15.672 109.532 15.364C110.074 15.0467 110.708 14.888 111.436 14.888C112.118 14.888 112.72 15.0373 113.242 15.336C113.765 15.6347 114.171 16.0453 114.46 16.568C114.759 17.0813 114.908 17.6553 114.908 18.29C114.908 18.3927 114.904 18.5 114.894 18.612C114.894 18.724 114.89 18.8407 114.88 18.962H109.602C109.64 19.5033 109.826 19.928 110.162 20.236C110.508 20.544 110.923 20.698 111.408 20.698C111.772 20.698 112.076 20.6187 112.318 20.46C112.57 20.292 112.757 20.0773 112.878 19.816H114.698C114.568 20.2547 114.348 20.656 114.04 21.02C113.742 21.3747 113.368 21.6547 112.92 21.86C112.482 22.0653 111.982 22.168 111.422 22.168ZM111.436 16.344C110.998 16.344 110.61 16.47 110.274 16.722C109.938 16.9647 109.724 17.338 109.63 17.842H113.088C113.06 17.3847 112.892 17.0207 112.584 16.75C112.276 16.4793 111.894 16.344 111.436 16.344ZM116.615 22V15.056H118.197L118.337 16.232C118.552 15.8213 118.86 15.4947 119.261 15.252C119.672 15.0093 120.153 14.888 120.703 14.888C121.562 14.888 122.229 15.1587 122.705 15.7C123.181 16.2413 123.419 17.0347 123.419 18.08V22H121.627V18.248C121.627 17.6507 121.506 17.1933 121.263 16.876C121.021 16.5587 120.643 16.4 120.129 16.4C119.625 16.4 119.21 16.5773 118.883 16.932C118.566 17.2867 118.407 17.7813 118.407 18.416V22H116.615ZM128.273 19.928C127.937 19.928 127.624 19.8907 127.335 19.816L126.817 20.334C126.976 20.418 127.19 20.488 127.461 20.544C127.732 20.6 128.17 20.656 128.777 20.712C129.701 20.796 130.373 21.0153 130.793 21.37C131.213 21.7247 131.423 22.2147 131.423 22.84C131.423 23.2507 131.311 23.638 131.087 24.002C130.863 24.3753 130.518 24.674 130.051 24.898C129.584 25.1313 128.987 25.248 128.259 25.248C127.27 25.248 126.472 25.0613 125.865 24.688C125.258 24.324 124.955 23.7733 124.955 23.036C124.955 22.4107 125.258 21.8693 125.865 21.412C125.678 21.328 125.515 21.2393 125.375 21.146C125.244 21.0527 125.128 20.9547 125.025 20.852V20.53L126.243 19.242C125.702 18.766 125.431 18.1547 125.431 17.408C125.431 16.9413 125.543 16.5167 125.767 16.134C126 15.7513 126.327 15.448 126.747 15.224C127.167 15 127.676 14.888 128.273 14.888C128.665 14.888 129.029 14.944 129.365 15.056H131.997V16.148L130.807 16.232C130.994 16.5867 131.087 16.9787 131.087 17.408C131.087 17.8747 130.975 18.2993 130.751 18.682C130.527 19.0647 130.2 19.368 129.771 19.592C129.351 19.816 128.852 19.928 128.273 19.928ZM128.273 18.556C128.637 18.556 128.936 18.458 129.169 18.262C129.412 18.066 129.533 17.786 129.533 17.422C129.533 17.058 129.412 16.778 129.169 16.582C128.936 16.386 128.637 16.288 128.273 16.288C127.89 16.288 127.582 16.386 127.349 16.582C127.116 16.778 126.999 17.058 126.999 17.422C126.999 17.786 127.116 18.066 127.349 18.262C127.582 18.458 127.89 18.556 128.273 18.556ZM126.593 22.854C126.593 23.1993 126.752 23.456 127.069 23.624C127.396 23.8013 127.792 23.89 128.259 23.89C128.707 23.89 129.071 23.7967 129.351 23.61C129.631 23.4327 129.771 23.19 129.771 22.882C129.771 22.63 129.678 22.42 129.491 22.252C129.314 22.084 128.954 21.9813 128.413 21.944C128.03 21.916 127.676 21.874 127.349 21.818C127.078 21.9673 126.882 22.1307 126.761 22.308C126.649 22.4853 126.593 22.6673 126.593 22.854ZM135.898 22.168C135.3 22.168 134.81 22.0747 134.428 21.888C134.045 21.692 133.76 21.4353 133.574 21.118C133.387 20.8007 133.294 20.4507 133.294 20.068C133.294 19.424 133.546 18.9013 134.05 18.5C134.554 18.0987 135.31 17.898 136.318 17.898H138.082V17.73C138.082 17.254 137.946 16.904 137.676 16.68C137.405 16.456 137.069 16.344 136.668 16.344C136.304 16.344 135.986 16.4327 135.716 16.61C135.445 16.778 135.277 17.03 135.212 17.366H133.462C133.508 16.862 133.676 16.4233 133.966 16.05C134.264 15.6767 134.647 15.392 135.114 15.196C135.58 14.9907 136.103 14.888 136.682 14.888C137.671 14.888 138.45 15.1353 139.02 15.63C139.589 16.1247 139.874 16.8247 139.874 17.73V22H138.348L138.18 20.88C137.974 21.2533 137.685 21.5613 137.312 21.804C136.948 22.0467 136.476 22.168 135.898 22.168ZM136.304 20.768C136.817 20.768 137.214 20.6 137.494 20.264C137.783 19.928 137.965 19.5127 138.04 19.018H136.514C136.038 19.018 135.697 19.1067 135.492 19.284C135.286 19.452 135.184 19.662 135.184 19.914C135.184 20.1847 135.286 20.3947 135.492 20.544C135.697 20.6933 135.968 20.768 136.304 20.768ZM141.784 22V15.056H143.366L143.506 16.232C143.72 15.8213 144.028 15.4947 144.43 15.252C144.84 15.0093 145.321 14.888 145.872 14.888C146.73 14.888 147.398 15.1587 147.874 15.7C148.35 16.2413 148.588 17.0347 148.588 18.08V22H146.796V18.248C146.796 17.6507 146.674 17.1933 146.432 16.876C146.189 16.5587 145.811 16.4 145.298 16.4C144.794 16.4 144.378 16.5773 144.052 16.932C143.734 17.2867 143.576 17.7813 143.576 18.416V22H141.784ZM158.363 22.168C157.439 22.168 156.632 21.958 155.941 21.538C155.251 21.118 154.714 20.5347 154.331 19.788C153.949 19.032 153.757 18.1547 153.757 17.156C153.757 16.148 153.953 15.2613 154.345 14.496C154.747 13.7213 155.311 13.1193 156.039 12.69C156.777 12.2513 157.649 12.032 158.657 12.032C159.805 12.032 160.757 12.3073 161.513 12.858C162.269 13.4087 162.759 14.1693 162.983 15.14H160.981C160.832 14.6827 160.561 14.328 160.169 14.076C159.777 13.8147 159.273 13.684 158.657 13.684C157.677 13.684 156.921 13.9967 156.389 14.622C155.857 15.238 155.591 16.0873 155.591 17.17C155.591 18.2527 155.853 19.0927 156.375 19.69C156.907 20.278 157.626 20.572 158.531 20.572C159.418 20.572 160.085 20.334 160.533 19.858C160.991 19.3727 161.266 18.738 161.359 17.954H158.881V16.61H163.165V22H161.513L161.373 20.712C161.056 21.1787 160.659 21.538 160.183 21.79C159.707 22.042 159.101 22.168 158.363 22.168ZM168.397 22.168C167.725 22.168 167.119 22.014 166.577 21.706C166.045 21.398 165.621 20.9733 165.303 20.432C164.995 19.8813 164.841 19.2467 164.841 18.528C164.841 17.8093 165 17.1793 165.317 16.638C165.635 16.0873 166.059 15.658 166.591 15.35C167.133 15.042 167.739 14.888 168.411 14.888C169.074 14.888 169.671 15.042 170.203 15.35C170.745 15.658 171.169 16.0873 171.477 16.638C171.795 17.1793 171.953 17.8093 171.953 18.528C171.953 19.2467 171.795 19.8813 171.477 20.432C171.169 20.9733 170.745 21.398 170.203 21.706C169.662 22.014 169.06 22.168 168.397 22.168ZM168.397 20.614C168.864 20.614 169.27 20.4413 169.615 20.096C169.961 19.7413 170.133 19.2187 170.133 18.528C170.133 17.8373 169.961 17.3193 169.615 16.974C169.27 16.6193 168.869 16.442 168.411 16.442C167.935 16.442 167.525 16.6193 167.179 16.974C166.843 17.3193 166.675 17.8373 166.675 18.528C166.675 19.2187 166.843 19.7413 167.179 20.096C167.525 20.4413 167.931 20.614 168.397 20.614ZM177.088 22.168C176.416 22.168 175.809 22.014 175.268 21.706C174.736 21.398 174.311 20.9733 173.994 20.432C173.686 19.8813 173.532 19.2467 173.532 18.528C173.532 17.8093 173.69 17.1793 174.008 16.638C174.325 16.0873 174.75 15.658 175.282 15.35C175.823 15.042 176.43 14.888 177.102 14.888C177.764 14.888 178.362 15.042 178.894 15.35C179.435 15.658 179.86 16.0873 180.168 16.638C180.485 17.1793 180.644 17.8093 180.644 18.528C180.644 19.2467 180.485 19.8813 180.168 20.432C179.86 20.9733 179.435 21.398 178.894 21.706C178.352 22.014 177.75 22.168 177.088 22.168ZM177.088 20.614C177.554 20.614 177.96 20.4413 178.306 20.096C178.651 19.7413 178.824 19.2187 178.824 18.528C178.824 17.8373 178.651 17.3193 178.306 16.974C177.96 16.6193 177.559 16.442 177.102 16.442C176.626 16.442 176.215 16.6193 175.87 16.974C175.534 17.3193 175.366 17.8373 175.366 18.528C175.366 19.2187 175.534 19.7413 175.87 20.096C176.215 20.4413 176.621 20.614 177.088 20.614ZM184.948 19.928C184.612 19.928 184.3 19.8907 184.01 19.816L183.492 20.334C183.651 20.418 183.866 20.488 184.136 20.544C184.407 20.6 184.846 20.656 185.452 20.712C186.376 20.796 187.048 21.0153 187.468 21.37C187.888 21.7247 188.098 22.2147 188.098 22.84C188.098 23.2507 187.986 23.638 187.762 24.002C187.538 24.3753 187.193 24.674 186.726 24.898C186.26 25.1313 185.662 25.248 184.934 25.248C183.945 25.248 183.147 25.0613 182.54 24.688C181.934 24.324 181.63 23.7733 181.63 23.036C181.63 22.4107 181.934 21.8693 182.54 21.412C182.354 21.328 182.19 21.2393 182.05 21.146C181.92 21.0527 181.803 20.9547 181.7 20.852V20.53L182.918 19.242C182.377 18.766 182.106 18.1547 182.106 17.408C182.106 16.9413 182.218 16.5167 182.442 16.134C182.676 15.7513 183.002 15.448 183.422 15.224C183.842 15 184.351 14.888 184.948 14.888C185.34 14.888 185.704 14.944 186.04 15.056H188.672V16.148L187.482 16.232C187.669 16.5867 187.762 16.9787 187.762 17.408C187.762 17.8747 187.65 18.2993 187.426 18.682C187.202 19.0647 186.876 19.368 186.446 19.592C186.026 19.816 185.527 19.928 184.948 19.928ZM184.948 18.556C185.312 18.556 185.611 18.458 185.844 18.262C186.087 18.066 186.208 17.786 186.208 17.422C186.208 17.058 186.087 16.778 185.844 16.582C185.611 16.386 185.312 16.288 184.948 16.288C184.566 16.288 184.258 16.386 184.024 16.582C183.791 16.778 183.674 17.058 183.674 17.422C183.674 17.786 183.791 18.066 184.024 18.262C184.258 18.458 184.566 18.556 184.948 18.556ZM183.268 22.854C183.268 23.1993 183.427 23.456 183.744 23.624C184.071 23.8013 184.468 23.89 184.934 23.89C185.382 23.89 185.746 23.7967 186.026 23.61C186.306 23.4327 186.446 23.19 186.446 22.882C186.446 22.63 186.353 22.42 186.166 22.252C185.989 22.084 185.63 21.9813 185.088 21.944C184.706 21.916 184.351 21.874 184.024 21.818C183.754 21.9673 183.558 22.1307 183.436 22.308C183.324 22.4853 183.268 22.6673 183.268 22.854ZM190.179 22V11.92H191.971V22H190.179ZM197.376 22.168C196.676 22.168 196.056 22.0187 195.514 21.72C194.973 21.4213 194.548 21.0013 194.24 20.46C193.932 19.9187 193.778 19.2933 193.778 18.584C193.778 17.8653 193.928 17.226 194.226 16.666C194.534 16.106 194.954 15.672 195.486 15.364C196.028 15.0467 196.662 14.888 197.39 14.888C198.072 14.888 198.674 15.0373 199.196 15.336C199.719 15.6347 200.125 16.0453 200.414 16.568C200.713 17.0813 200.862 17.6553 200.862 18.29C200.862 18.3927 200.858 18.5 200.848 18.612C200.848 18.724 200.844 18.8407 200.834 18.962H195.556C195.594 19.5033 195.78 19.928 196.116 20.236C196.462 20.544 196.877 20.698 197.362 20.698C197.726 20.698 198.03 20.6187 198.272 20.46C198.524 20.292 198.711 20.0773 198.832 19.816H200.652C200.522 20.2547 200.302 20.656 199.994 21.02C199.696 21.3747 199.322 21.6547 198.874 21.86C198.436 22.0653 197.936 22.168 197.376 22.168ZM197.39 16.344C196.952 16.344 196.564 16.47 196.228 16.722C195.892 16.9647 195.678 17.338 195.584 17.842H199.042C199.014 17.3847 198.846 17.0207 198.538 16.75C198.23 16.4793 197.848 16.344 197.39 16.344Z" fill="#4A505C"/>
</svg>
