<svg width="248" height="38" viewBox="0 0 248 38" fill="none" xmlns="http://www.w3.org/2000/svg">
<path d="M40.9905 19.426C40.9905 18.5874 40.9224 17.9754 40.7752 17.3408H31.1992V21.1258H36.8201C36.7068 22.0664 36.0948 23.483 34.7349 24.4349L34.7159 24.5616L37.7436 26.9071L37.9534 26.9281C39.8798 25.1489 40.9905 22.5311 40.9905 19.426Z" fill="#4285F4"/>
<path d="M31.1992 29.3983C33.953 29.3983 36.2648 28.4917 37.9534 26.9279L34.7349 24.4347C33.8737 25.0353 32.7177 25.4546 31.1992 25.4546C28.5021 25.4546 26.213 23.6754 25.397 21.2163L25.2773 21.2265L22.1291 23.6629L22.0879 23.7774C23.7651 27.1091 27.2102 29.3983 31.1992 29.3983Z" fill="#34A853"/>
<path d="M25.397 21.2164C25.1816 20.5818 25.057 19.9018 25.057 19.1993C25.057 18.4966 25.1816 17.8167 25.3856 17.1821L25.3799 17.0469L22.1922 14.5713L22.0879 14.6209C21.3966 16.0035 21 17.5561 21 19.1993C21 20.8425 21.3966 22.395 22.0879 23.7775L25.397 21.2164Z" fill="#FBBC05"/>
<path d="M31.1992 12.9437C33.1144 12.9437 34.4062 13.7709 35.1429 14.4623L38.0213 11.6518C36.2535 10.0086 33.953 9 31.1992 9C27.2102 9 23.7651 11.2891 22.0879 14.6209L25.3856 17.182C26.213 14.7229 28.5021 12.9437 31.1992 12.9437Z" fill="#EB4335"/>
<path d="M50.088 24V12.8H53.912C55.224 12.8 56.3013 13.0347 57.144 13.504C57.9973 13.9627 58.6267 14.6133 59.032 15.456C59.448 16.288 59.656 17.2693 59.656 18.4C59.656 19.5307 59.448 20.5173 59.032 21.36C58.6267 22.192 57.9973 22.8427 57.144 23.312C56.3013 23.7707 55.224 24 53.912 24H50.088ZM52.136 22.24H53.816C54.7547 22.24 55.496 22.0907 56.04 21.792C56.584 21.4827 56.9733 21.0453 57.208 20.48C57.4427 19.904 57.56 19.2107 57.56 18.4C57.56 17.6 57.4427 16.912 57.208 16.336C56.9733 15.76 56.584 15.3173 56.04 15.008C55.496 14.6987 54.7547 14.544 53.816 14.544H52.136V22.24ZM64.351 24.192C63.6683 24.192 63.1083 24.0853 62.671 23.872C62.2337 23.648 61.9083 23.3547 61.695 22.992C61.4817 22.6293 61.375 22.2293 61.375 21.792C61.375 21.056 61.663 20.4587 62.239 20C62.815 19.5413 63.679 19.312 64.831 19.312H66.847V19.12C66.847 18.576 66.6923 18.176 66.383 17.92C66.0737 17.664 65.6897 17.536 65.231 17.536C64.815 17.536 64.4523 17.6373 64.143 17.84C63.8337 18.032 63.6417 18.32 63.567 18.704H61.567C61.6203 18.128 61.8123 17.6267 62.143 17.2C62.4843 16.7733 62.9217 16.448 63.455 16.224C63.9883 15.9893 64.5857 15.872 65.247 15.872C66.3777 15.872 67.2683 16.1547 67.919 16.72C68.5697 17.2853 68.895 18.0853 68.895 19.12V24H67.151L66.959 22.72C66.7243 23.1467 66.3937 23.4987 65.967 23.776C65.551 24.0533 65.0123 24.192 64.351 24.192ZM64.815 22.592C65.4017 22.592 65.855 22.4 66.175 22.016C66.5057 21.632 66.7137 21.1573 66.799 20.592H65.055C64.511 20.592 64.1217 20.6933 63.887 20.896C63.6523 21.088 63.535 21.328 63.535 21.616C63.535 21.9253 63.6523 22.1653 63.887 22.336C64.1217 22.5067 64.431 22.592 64.815 22.592ZM71.4174 24V17.776H70.3294V16.064H71.4174V15.136C71.4174 14.176 71.6574 13.4933 72.1374 13.088C72.628 12.6827 73.2894 12.48 74.1214 12.48H75.0014V14.224H74.4414C74.0894 14.224 73.8387 14.2933 73.6894 14.432C73.54 14.5707 73.4654 14.8053 73.4654 15.136V16.064H75.1774V17.776H73.4654V24H71.4174ZM80.5354 24C79.7034 24 79.0367 23.7973 78.5354 23.392C78.034 22.9867 77.7834 22.2667 77.7834 21.232V17.776H76.4234V16.064H77.7834L78.0234 13.936H79.8314V16.064H81.9754V17.776H79.8314V21.248C79.8314 21.632 79.9114 21.8987 80.0714 22.048C80.242 22.1867 80.53 22.256 80.9354 22.256H81.9274V24H80.5354ZM86.6697 24.192C85.9871 24.192 85.4271 24.0853 84.9897 23.872C84.5524 23.648 84.2271 23.3547 84.0137 22.992C83.8004 22.6293 83.6937 22.2293 83.6937 21.792C83.6937 21.056 83.9817 20.4587 84.5577 20C85.1337 19.5413 85.9977 19.312 87.1497 19.312H89.1657V19.12C89.1657 18.576 89.0111 18.176 88.7017 17.92C88.3924 17.664 88.0084 17.536 87.5497 17.536C87.1337 17.536 86.7711 17.6373 86.4617 17.84C86.1524 18.032 85.9604 18.32 85.8857 18.704H83.8857C83.9391 18.128 84.1311 17.6267 84.4617 17.2C84.8031 16.7733 85.2404 16.448 85.7737 16.224C86.3071 15.9893 86.9044 15.872 87.5657 15.872C88.6964 15.872 89.5871 16.1547 90.2377 16.72C90.8884 17.2853 91.2137 18.0853 91.2137 19.12V24H89.4697L89.2777 22.72C89.0431 23.1467 88.7124 23.4987 88.2857 23.776C87.8697 24.0533 87.3311 24.192 86.6697 24.192ZM87.1337 22.592C87.7204 22.592 88.1737 22.4 88.4937 22.016C88.8244 21.632 89.0324 21.1573 89.1177 20.592H87.3737C86.8297 20.592 86.4404 20.6933 86.2057 20.896C85.9711 21.088 85.8537 21.328 85.8537 21.616C85.8537 21.9253 85.9711 22.1653 86.2057 22.336C86.4404 22.5067 86.7497 22.592 87.1337 22.592ZM93.3681 24V16.064H95.1921L95.3841 17.552C95.6721 17.04 96.0615 16.6347 96.5521 16.336C97.0535 16.0267 97.6401 15.872 98.3121 15.872V18.032H97.7361C97.2881 18.032 96.8881 18.1013 96.5361 18.24C96.1841 18.3787 95.9068 18.6187 95.7041 18.96C95.5121 19.3013 95.4161 19.776 95.4161 20.384V24H93.3681ZM107.572 24.192C106.826 24.192 106.159 24.0107 105.572 23.648C104.986 23.2853 104.522 22.7893 104.18 22.16C103.839 21.5307 103.668 20.816 103.668 20.016C103.668 19.216 103.839 18.5067 104.18 17.888C104.522 17.2587 104.986 16.768 105.572 16.416C106.159 16.0533 106.826 15.872 107.572 15.872C108.17 15.872 108.692 15.984 109.14 16.208C109.588 16.432 109.951 16.7467 110.228 17.152V12.48H112.276V24H110.452L110.228 22.864C109.972 23.216 109.631 23.5253 109.204 23.792C108.788 24.0587 108.244 24.192 107.572 24.192ZM108.004 22.4C108.666 22.4 109.204 22.1813 109.62 21.744C110.047 21.296 110.26 20.7253 110.26 20.032C110.26 19.3387 110.047 18.7733 109.62 18.336C109.204 17.888 108.666 17.664 108.004 17.664C107.354 17.664 106.815 17.8827 106.388 18.32C105.962 18.7573 105.748 19.3227 105.748 20.016C105.748 20.7093 105.962 21.28 106.388 21.728C106.815 22.176 107.354 22.4 108.004 22.4ZM118.418 24.192C117.618 24.192 116.909 24.0213 116.29 23.68C115.671 23.3387 115.186 22.8587 114.834 22.24C114.482 21.6213 114.306 20.9067 114.306 20.096C114.306 19.2747 114.477 18.544 114.818 17.904C115.17 17.264 115.65 16.768 116.258 16.416C116.877 16.0533 117.602 15.872 118.434 15.872C119.213 15.872 119.901 16.0427 120.498 16.384C121.095 16.7253 121.559 17.1947 121.89 17.792C122.231 18.3787 122.402 19.0347 122.402 19.76C122.402 19.8773 122.397 20 122.386 20.128C122.386 20.256 122.381 20.3893 122.37 20.528H116.338C116.381 21.1467 116.594 21.632 116.978 21.984C117.373 22.336 117.847 22.512 118.402 22.512C118.818 22.512 119.165 22.4213 119.442 22.24C119.73 22.048 119.943 21.8027 120.082 21.504H122.162C122.013 22.0053 121.762 22.464 121.41 22.88C121.069 23.2853 120.642 23.6053 120.13 23.84C119.629 24.0747 119.058 24.192 118.418 24.192ZM118.434 17.536C117.933 17.536 117.49 17.68 117.106 17.968C116.722 18.2453 116.477 18.672 116.37 19.248H120.322C120.29 18.7253 120.098 18.3093 119.746 18C119.394 17.6907 118.957 17.536 118.434 17.536ZM124.324 24V16.064H126.132L126.292 17.408C126.538 16.9387 126.89 16.5653 127.348 16.288C127.818 16.0107 128.367 15.872 128.996 15.872C129.978 15.872 130.74 16.1813 131.284 16.8C131.828 17.4187 132.1 18.3253 132.1 19.52V24H130.052V19.712C130.052 19.0293 129.914 18.5067 129.636 18.144C129.359 17.7813 128.927 17.6 128.34 17.6C127.764 17.6 127.29 17.8027 126.916 18.208C126.554 18.6133 126.372 19.1787 126.372 19.904V24H124.324ZM137.619 21.632C137.235 21.632 136.877 21.5893 136.547 21.504L135.955 22.096C136.136 22.192 136.381 22.272 136.691 22.336C137 22.4 137.501 22.464 138.195 22.528C139.251 22.624 140.019 22.8747 140.499 23.28C140.979 23.6853 141.219 24.2453 141.219 24.96C141.219 25.4293 141.091 25.872 140.835 26.288C140.579 26.7147 140.184 27.056 139.651 27.312C139.117 27.5787 138.435 27.712 137.603 27.712C136.472 27.712 135.56 27.4987 134.867 27.072C134.173 26.656 133.827 26.0267 133.827 25.184C133.827 24.4693 134.173 23.8507 134.867 23.328C134.653 23.232 134.467 23.1307 134.307 23.024C134.157 22.9173 134.024 22.8053 133.907 22.688V22.32L135.299 20.848C134.68 20.304 134.371 19.6053 134.371 18.752C134.371 18.2187 134.499 17.7333 134.755 17.296C135.021 16.8587 135.395 16.512 135.875 16.256C136.355 16 136.936 15.872 137.619 15.872C138.067 15.872 138.483 15.936 138.867 16.064H141.875V17.312L140.515 17.408C140.728 17.8133 140.835 18.2613 140.835 18.752C140.835 19.2853 140.707 19.7707 140.451 20.208C140.195 20.6453 139.821 20.992 139.331 21.248C138.851 21.504 138.28 21.632 137.619 21.632ZM137.619 20.064C138.035 20.064 138.376 19.952 138.643 19.728C138.92 19.504 139.059 19.184 139.059 18.768C139.059 18.352 138.92 18.032 138.643 17.808C138.376 17.584 138.035 17.472 137.619 17.472C137.181 17.472 136.829 17.584 136.563 17.808C136.296 18.032 136.163 18.352 136.163 18.768C136.163 19.184 136.296 19.504 136.563 19.728C136.829 19.952 137.181 20.064 137.619 20.064ZM135.699 24.976C135.699 25.3707 135.88 25.664 136.243 25.856C136.616 26.0587 137.069 26.16 137.603 26.16C138.115 26.16 138.531 26.0533 138.851 25.84C139.171 25.6373 139.331 25.36 139.331 25.008C139.331 24.72 139.224 24.48 139.011 24.288C138.808 24.096 138.397 23.9787 137.779 23.936C137.341 23.904 136.936 23.856 136.563 23.792C136.253 23.9627 136.029 24.1493 135.891 24.352C135.763 24.5547 135.699 24.7627 135.699 24.976ZM146.304 24.192C145.621 24.192 145.061 24.0853 144.624 23.872C144.187 23.648 143.861 23.3547 143.648 22.992C143.435 22.6293 143.328 22.2293 143.328 21.792C143.328 21.056 143.616 20.4587 144.192 20C144.768 19.5413 145.632 19.312 146.784 19.312H148.8V19.12C148.8 18.576 148.645 18.176 148.336 17.92C148.027 17.664 147.643 17.536 147.184 17.536C146.768 17.536 146.405 17.6373 146.096 17.84C145.787 18.032 145.595 18.32 145.52 18.704H143.52C143.573 18.128 143.765 17.6267 144.096 17.2C144.437 16.7733 144.875 16.448 145.408 16.224C145.941 15.9893 146.539 15.872 147.2 15.872C148.331 15.872 149.221 16.1547 149.872 16.72C150.523 17.2853 150.848 18.0853 150.848 19.12V24H149.104L148.912 22.72C148.677 23.1467 148.347 23.4987 147.92 23.776C147.504 24.0533 146.965 24.192 146.304 24.192ZM146.768 22.592C147.355 22.592 147.808 22.4 148.128 22.016C148.459 21.632 148.667 21.1573 148.752 20.592H147.008C146.464 20.592 146.075 20.6933 145.84 20.896C145.605 21.088 145.488 21.328 145.488 21.616C145.488 21.9253 145.605 22.1653 145.84 22.336C146.075 22.5067 146.384 22.592 146.768 22.592ZM153.003 24V16.064H154.811L154.971 17.408C155.216 16.9387 155.568 16.5653 156.027 16.288C156.496 16.0107 157.045 15.872 157.675 15.872C158.656 15.872 159.419 16.1813 159.963 16.8C160.507 17.4187 160.779 18.3253 160.779 19.52V24H158.731V19.712C158.731 19.0293 158.592 18.5067 158.315 18.144C158.037 17.7813 157.605 17.6 157.019 17.6C156.443 17.6 155.968 17.8027 155.595 18.208C155.232 18.6133 155.051 19.1787 155.051 19.904V24H153.003ZM171.893 24.192C170.837 24.192 169.915 23.952 169.125 23.472C168.336 22.992 167.723 22.3253 167.285 21.472C166.848 20.608 166.629 19.6053 166.629 18.464C166.629 17.312 166.853 16.2987 167.301 15.424C167.76 14.5387 168.405 13.8507 169.237 13.36C170.08 12.8587 171.077 12.608 172.229 12.608C173.541 12.608 174.629 12.9227 175.493 13.552C176.357 14.1813 176.917 15.0507 177.173 16.16H174.885C174.715 15.6373 174.405 15.232 173.957 14.944C173.509 14.6453 172.933 14.496 172.229 14.496C171.109 14.496 170.245 14.8533 169.637 15.568C169.029 16.272 168.725 17.2427 168.725 18.48C168.725 19.7173 169.024 20.6773 169.621 21.36C170.229 22.032 171.051 22.368 172.085 22.368C173.099 22.368 173.861 22.096 174.373 21.552C174.896 20.9973 175.211 20.272 175.317 19.376H172.485V17.84H177.381V24H175.493L175.333 22.528C174.971 23.0613 174.517 23.472 173.973 23.76C173.429 24.048 172.736 24.192 171.893 24.192ZM183.332 24.192C182.564 24.192 181.871 24.016 181.252 23.664C180.644 23.312 180.159 22.8267 179.796 22.208C179.444 21.5787 179.268 20.8533 179.268 20.032C179.268 19.2107 179.45 18.4907 179.812 17.872C180.175 17.2427 180.66 16.752 181.268 16.4C181.887 16.048 182.58 15.872 183.348 15.872C184.106 15.872 184.788 16.048 185.396 16.4C186.015 16.752 186.5 17.2427 186.852 17.872C187.215 18.4907 187.396 19.2107 187.396 20.032C187.396 20.8533 187.215 21.5787 186.852 22.208C186.5 22.8267 186.015 23.312 185.396 23.664C184.778 24.016 184.09 24.192 183.332 24.192ZM183.332 22.416C183.866 22.416 184.33 22.2187 184.724 21.824C185.119 21.4187 185.316 20.8213 185.316 20.032C185.316 19.2427 185.119 18.6507 184.724 18.256C184.33 17.8507 183.871 17.648 183.348 17.648C182.804 17.648 182.335 17.8507 181.94 18.256C181.556 18.6507 181.364 19.2427 181.364 20.032C181.364 20.8213 181.556 21.4187 181.94 21.824C182.335 22.2187 182.799 22.416 183.332 22.416ZM193.235 24.192C192.467 24.192 191.774 24.016 191.155 23.664C190.547 23.312 190.062 22.8267 189.699 22.208C189.347 21.5787 189.171 20.8533 189.171 20.032C189.171 19.2107 189.353 18.4907 189.715 17.872C190.078 17.2427 190.563 16.752 191.171 16.4C191.79 16.048 192.483 15.872 193.251 15.872C194.009 15.872 194.691 16.048 195.299 16.4C195.918 16.752 196.403 17.2427 196.755 17.872C197.118 18.4907 197.299 19.2107 197.299 20.032C197.299 20.8533 197.118 21.5787 196.755 22.208C196.403 22.8267 195.918 23.312 195.299 23.664C194.681 24.016 193.993 24.192 193.235 24.192ZM193.235 22.416C193.769 22.416 194.233 22.2187 194.627 21.824C195.022 21.4187 195.219 20.8213 195.219 20.032C195.219 19.2427 195.022 18.6507 194.627 18.256C194.233 17.8507 193.774 17.648 193.251 17.648C192.707 17.648 192.238 17.8507 191.843 18.256C191.459 18.6507 191.267 19.2427 191.267 20.032C191.267 20.8213 191.459 21.4187 191.843 21.824C192.238 22.2187 192.702 22.416 193.235 22.416ZM202.191 21.632C201.807 21.632 201.449 21.5893 201.119 21.504L200.527 22.096C200.708 22.192 200.953 22.272 201.263 22.336C201.572 22.4 202.073 22.464 202.767 22.528C203.823 22.624 204.591 22.8747 205.071 23.28C205.551 23.6853 205.791 24.2453 205.791 24.96C205.791 25.4293 205.663 25.872 205.407 26.288C205.151 26.7147 204.756 27.056 204.223 27.312C203.689 27.5787 203.007 27.712 202.175 27.712C201.044 27.712 200.132 27.4987 199.439 27.072C198.745 26.656 198.399 26.0267 198.399 25.184C198.399 24.4693 198.745 23.8507 199.439 23.328C199.225 23.232 199.039 23.1307 198.879 23.024C198.729 22.9173 198.596 22.8053 198.479 22.688V22.32L199.871 20.848C199.252 20.304 198.943 19.6053 198.943 18.752C198.943 18.2187 199.071 17.7333 199.327 17.296C199.593 16.8587 199.967 16.512 200.447 16.256C200.927 16 201.508 15.872 202.191 15.872C202.639 15.872 203.055 15.936 203.439 16.064H206.447V17.312L205.087 17.408C205.3 17.8133 205.407 18.2613 205.407 18.752C205.407 19.2853 205.279 19.7707 205.023 20.208C204.767 20.6453 204.393 20.992 203.903 21.248C203.423 21.504 202.852 21.632 202.191 21.632ZM202.191 20.064C202.607 20.064 202.948 19.952 203.215 19.728C203.492 19.504 203.631 19.184 203.631 18.768C203.631 18.352 203.492 18.032 203.215 17.808C202.948 17.584 202.607 17.472 202.191 17.472C201.753 17.472 201.401 17.584 201.135 17.808C200.868 18.032 200.735 18.352 200.735 18.768C200.735 19.184 200.868 19.504 201.135 19.728C201.401 19.952 201.753 20.064 202.191 20.064ZM200.271 24.976C200.271 25.3707 200.452 25.664 200.815 25.856C201.188 26.0587 201.641 26.16 202.175 26.16C202.687 26.16 203.103 26.0533 203.423 25.84C203.743 25.6373 203.903 25.36 203.903 25.008C203.903 24.72 203.796 24.48 203.583 24.288C203.38 24.096 202.969 23.9787 202.351 23.936C201.913 23.904 201.508 23.856 201.135 23.792C200.825 23.9627 200.601 24.1493 200.463 24.352C200.335 24.5547 200.271 24.7627 200.271 24.976ZM208.14 24V12.48H210.188V24H208.14ZM216.337 24.192C215.537 24.192 214.827 24.0213 214.209 23.68C213.59 23.3387 213.105 22.8587 212.753 22.24C212.401 21.6213 212.225 20.9067 212.225 20.096C212.225 19.2747 212.395 18.544 212.737 17.904C213.089 17.264 213.569 16.768 214.177 16.416C214.795 16.0533 215.521 15.872 216.353 15.872C217.131 15.872 217.819 16.0427 218.417 16.384C219.014 16.7253 219.478 17.1947 219.809 17.792C220.15 18.3787 220.321 19.0347 220.321 19.76C220.321 19.8773 220.315 20 220.305 20.128C220.305 20.256 220.299 20.3893 220.289 20.528H214.257C214.299 21.1467 214.513 21.632 214.897 21.984C215.291 22.336 215.766 22.512 216.321 22.512C216.737 22.512 217.083 22.4213 217.361 22.24C217.649 22.048 217.862 21.8027 218.001 21.504H220.081C219.931 22.0053 219.681 22.464 219.329 22.88C218.987 23.2853 218.561 23.6053 218.049 23.84C217.547 24.0747 216.977 24.192 216.337 24.192ZM216.353 17.536C215.851 17.536 215.409 17.68 215.025 17.968C214.641 18.2453 214.395 18.672 214.289 19.248H218.241C218.209 18.7253 218.017 18.3093 217.665 18C217.313 17.6907 216.875 17.536 216.353 17.536Z" fill="#4A505C"/>
</svg>
